<svg width="32" height="32" viewBox="0 0 32 32" fill="none" xmlns="http://www.w3.org/2000/svg">
<rect width="32" height="32" rx="6" fill="url(#paint0_linear_798_76)"/>
<g clip-path="url(#clip0_798_76)" filter="url(#filter0_d_798_76)">
<path d="M13.954 6.21C15.3029 5.92713 16.6958 5.92645 18.045 6.208C18.1349 6.80129 18.3573 7.36669 18.6958 7.86218C19.0342 8.35767 19.48 8.77051 20 9.07C20.5195 9.37053 21.1002 9.55007 21.6987 9.59525C22.2972 9.64044 22.8982 9.55012 23.457 9.331C24.3753 10.3591 25.0709 11.566 25.5 12.876C25.0313 13.2506 24.6531 13.726 24.3934 14.2668C24.1337 14.8076 23.9993 15.4 24 16C24 17.264 24.586 18.391 25.502 19.124C25.0703 20.4329 24.3739 21.6389 23.456 22.667C22.8973 22.448 22.2965 22.3578 21.6982 22.403C21.0999 22.4482 20.5194 22.6276 20 22.928C19.4804 23.2274 19.035 23.64 18.6967 24.1351C18.3585 24.6302 18.136 25.1952 18.046 25.788C16.6972 26.0715 15.3043 26.0729 13.955 25.792C13.8655 25.1982 13.6433 24.6322 13.3048 24.1361C12.9663 23.6401 12.5203 23.2268 12 22.927C11.4804 22.6266 10.8997 22.4473 10.3012 22.4023C9.70266 22.3572 9.1017 22.4477 8.54299 22.667C7.62458 21.6386 6.92899 20.4313 6.49999 19.121C6.96838 18.7466 7.34644 18.2716 7.60612 17.7311C7.8658 17.1906 8.00042 16.5986 7.99999 15.999C8.00048 15.3989 7.86569 14.8064 7.60565 14.2655C7.34561 13.7247 6.96701 13.2494 6.49799 12.875C6.92965 11.5661 7.6261 10.3601 8.54399 9.332C9.10264 9.55096 9.70345 9.6412 10.3018 9.59601C10.9001 9.55083 11.4806 9.37138 12 9.071C12.5195 8.7716 12.965 8.35903 13.3032 7.86391C13.6415 7.36879 13.8639 6.80384 13.954 6.211V6.21ZM16 19C16.7956 19 17.5587 18.6839 18.1213 18.1213C18.6839 17.5587 19 16.7957 19 16C19 15.2044 18.6839 14.4413 18.1213 13.8787C17.5587 13.3161 16.7956 13 16 13C15.2043 13 14.4413 13.3161 13.8787 13.8787C13.3161 14.4413 13 15.2044 13 16C13 16.7957 13.3161 17.5587 13.8787 18.1213C14.4413 18.6839 15.2043 19 16 19Z" fill="#E8E8E8"/>
</g>
<defs>
<filter id="filter0_d_798_76" x="2" y="3" width="28" height="28" filterUnits="userSpaceOnUse" color-interpolation-filters="sRGB">
<feFlood flood-opacity="0" result="BackgroundImageFix"/>
<feColorMatrix in="SourceAlpha" type="matrix" values="0 0 0 0 0 0 0 0 0 0 0 0 0 0 0 0 0 0 127 0" result="hardAlpha"/>
<feOffset dy="1"/>
<feGaussianBlur stdDeviation="1"/>
<feComposite in2="hardAlpha" operator="out"/>
<feColorMatrix type="matrix" values="0 0 0 0 0 0 0 0 0 0 0 0 0 0 0 0 0 0 0.1 0"/>
<feBlend mode="normal" in2="BackgroundImageFix" result="effect1_dropShadow_798_76"/>
<feBlend mode="normal" in="SourceGraphic" in2="effect1_dropShadow_798_76" result="shape"/>
</filter>
<linearGradient id="paint0_linear_798_76" x1="16" y1="0" x2="16" y2="32" gradientUnits="userSpaceOnUse">
<stop stop-color="#9E9E9E"/>
<stop offset="1" stop-color="#4F4F4F"/>
</linearGradient>
<clipPath id="clip0_798_76">
<rect width="24" height="24" fill="white" transform="translate(4 4)"/>
</clipPath>
</defs>
</svg>
