<svg width="32" height="32" viewBox="0 0 32 32" fill="none" xmlns="http://www.w3.org/2000/svg">
<rect width="32" height="32" rx="6" fill="url(#paint0_linear_798_56)"/>
<g filter="url(#filter0_d_798_56)">
<path d="M24 9H8V23L17.292 13.706C17.4795 13.5185 17.7338 13.4132 17.999 13.4132C18.2642 13.4132 18.5185 13.5185 18.706 13.706L24 19.01V9ZM6 7.993C6.00183 7.73038 6.1069 7.47902 6.29251 7.29322C6.47813 7.10742 6.72938 7.00209 6.992 7H25.008C25.556 7 26 7.445 26 7.993V24.007C25.9982 24.2696 25.8931 24.521 25.7075 24.7068C25.5219 24.8926 25.2706 24.9979 25.008 25H6.992C6.72881 24.9997 6.4765 24.895 6.29049 24.7088C6.10448 24.5226 6 24.2702 6 24.007V7.993ZM12 15C11.4696 15 10.9609 14.7893 10.5858 14.4142C10.2107 14.0391 10 13.5304 10 13C10 12.4696 10.2107 11.9609 10.5858 11.5858C10.9609 11.2107 11.4696 11 12 11C12.5304 11 13.0391 11.2107 13.4142 11.5858C13.7893 11.9609 14 12.4696 14 13C14 13.5304 13.7893 14.0391 13.4142 14.4142C13.0391 14.7893 12.5304 15 12 15Z" fill="#FFEFE1"/>
</g>
<defs>
<filter id="filter0_d_798_56" x="4" y="6" width="24" height="22" filterUnits="userSpaceOnUse" color-interpolation-filters="sRGB">
<feFlood flood-opacity="0" result="BackgroundImageFix"/>
<feColorMatrix in="SourceAlpha" type="matrix" values="0 0 0 0 0 0 0 0 0 0 0 0 0 0 0 0 0 0 127 0" result="hardAlpha"/>
<feOffset dy="1"/>
<feGaussianBlur stdDeviation="1"/>
<feComposite in2="hardAlpha" operator="out"/>
<feColorMatrix type="matrix" values="0 0 0 0 0 0 0 0 0 0 0 0 0 0 0 0 0 0 0.1 0"/>
<feBlend mode="normal" in2="BackgroundImageFix" result="effect1_dropShadow_798_56"/>
<feBlend mode="normal" in="SourceGraphic" in2="effect1_dropShadow_798_56" result="shape"/>
</filter>
<linearGradient id="paint0_linear_798_56" x1="16" y1="0" x2="16" y2="32" gradientUnits="userSpaceOnUse">
<stop stop-color="#FC8829"/>
<stop offset="1" stop-color="#D35F00"/>
</linearGradient>
</defs>
</svg>
