<svg width="32" height="32" viewBox="0 0 32 32" fill="none" xmlns="http://www.w3.org/2000/svg">
<rect width="32" height="32" rx="6" fill="url(#paint0_linear_1848_52)"/>
<path d="M10.2351 10.4533C8.85101 11.8915 8 13.8464 8 16C8 20.4183 11.5817 24 16 24C17.0808 24 18.1116 23.7857 19.0521 23.3972C19.1671 22.6467 18.9148 21.9266 18.8116 21.6746C18.582 21.115 17.8241 20.1582 16.5589 18.8308C16.2212 18.4758 16.2429 18.2035 16.3636 17.3943L16.3775 17.3029C16.4595 16.7486 16.5971 16.4209 18.4622 16.1248C19.4097 15.9746 19.6589 16.3533 20.0043 16.8777C20.0425 16.9358 20.0807 16.9928 20.1198 17.0499C20.4479 17.5297 20.691 17.6394 21.0582 17.8064C21.2227 17.881 21.428 17.9751 21.7031 18.1314C22.3551 18.504 22.3551 18.9247 22.3551 19.8472V19.9518C22.3551 20.3434 22.3168 20.6872 22.2566 20.9859C23.3478 19.6185 24 17.8854 24 16C24 12.7009 22.003 9.8682 19.1519 8.64482C18.5987 9.01813 17.8398 9.54726 17.575 9.91C17.4396 10.0954 17.2482 11.0417 16.6257 11.1198C16.4626 11.1402 16.2438 11.1259 16.012 11.111C15.3905 11.0706 14.5402 11.0161 14.268 11.755C14.0952 12.2232 14.0648 13.4944 14.6239 14.1543C14.7134 14.2597 14.7307 14.4547 14.6699 14.6735C14.59 14.9608 14.4286 15.1356 14.3783 15.1717C14.2819 15.1163 14.0896 14.8931 13.9594 14.7412C13.6455 14.3765 13.254 13.9223 12.748 13.7818C12.5639 13.7308 12.3617 13.6887 12.1655 13.6474C11.6164 13.5323 10.9944 13.4013 10.8499 13.093C10.7444 12.8672 10.7449 12.5562 10.7453 12.2276C10.7453 11.8112 10.7453 11.3403 10.5413 10.8826C10.4625 10.7054 10.3569 10.5645 10.2351 10.4533ZM16 26C10.4771 26 6 21.5228 6 16C6 10.4771 10.4771 6 16 6C21.5228 6 26 10.4771 26 16C26 21.5228 21.5228 26 16 26Z" fill="#E2ECFF"/>
<defs>
<linearGradient id="paint0_linear_1848_52" x1="16" y1="0" x2="16" y2="32" gradientUnits="userSpaceOnUse">
<stop stop-color="#3079F8"/>
<stop offset="1" stop-color="#0054E6"/>
</linearGradient>
</defs>
</svg>
