<svg width="32" height="32" viewBox="0 0 32 32" fill="none" xmlns="http://www.w3.org/2000/svg">
<rect width="32" height="32" rx="6" fill="#0D321E"/>
<path d="M16.0001 10C18.3491 10 20.3827 11.3498 21.3678 13.316L19.5787 14.2108C18.922 12.8999 17.5662 12 16.0001 12C14.4341 12 13.0783 12.8999 12.4216 14.2108L10.6325 13.316C11.6176 11.3498 13.6512 10 16.0001 10ZM16.0001 6C19.9153 6 23.3049 8.24991 24.9466 11.5273L23.1576 12.4224C21.8443 9.80019 19.1325 8 16.0001 8C12.8678 8 10.156 9.80019 8.84271 12.4224L7.05371 11.5273C8.69541 8.24991 12.085 6 16.0001 6Z" fill="#3DDB85"/>
<path d="M10.3823 17.9681C11.922 16.7365 13.875 16 16 16C18.125 16 20.078 16.7365 21.6177 17.9681L23.0711 16.5147L24.4853 17.9289L23.0319 19.3823C24.2635 20.922 25 22.875 25 25V26H7V25C7 22.875 7.73647 20.922 8.9681 19.3823L7.51472 17.9289L8.92893 16.5147L10.3823 17.9681ZM13 23C13.5523 23 14 22.5523 14 22C14 21.4477 13.5523 21 13 21C12.4477 21 12 21.4477 12 22C12 22.5523 12.4477 23 13 23ZM19 23C19.5523 23 20 22.5523 20 22C20 21.4477 19.5523 21 19 21C18.4477 21 18 21.4477 18 22C18 22.5523 18.4477 23 19 23Z" fill="#3DDB85"/>
</svg>
