<svg width="32" height="32" viewBox="0 0 32 32" fill="none" xmlns="http://www.w3.org/2000/svg">
<rect width="32" height="32" rx="6" fill="url(#paint0_linear_798_57)"/>
<g clip-path="url(#clip0_798_57)">
<g filter="url(#filter0_d_798_57)">
<path d="M16 17.535V7H24V10H18V21C17.9998 21.8805 17.7091 22.7363 17.1729 23.4348C16.6368 24.1332 15.8852 24.6352 15.0346 24.863C14.1841 25.0907 13.2822 25.0315 12.4688 24.6944C11.6553 24.3573 10.9758 23.7613 10.5357 22.9987C10.0955 22.2361 9.91927 21.3496 10.0343 20.4767C10.1493 19.6037 10.5491 18.7931 11.1717 18.1705C11.7944 17.5479 12.605 17.1482 13.478 17.0333C14.351 16.9184 15.2375 17.0948 16 17.535Z" fill="#FFD9E2"/>
</g>
</g>
<defs>
<filter id="filter0_d_798_57" x="8" y="6" width="18" height="21.9991" filterUnits="userSpaceOnUse" color-interpolation-filters="sRGB">
<feFlood flood-opacity="0" result="BackgroundImageFix"/>
<feColorMatrix in="SourceAlpha" type="matrix" values="0 0 0 0 0 0 0 0 0 0 0 0 0 0 0 0 0 0 127 0" result="hardAlpha"/>
<feOffset dy="1"/>
<feGaussianBlur stdDeviation="1"/>
<feComposite in2="hardAlpha" operator="out"/>
<feColorMatrix type="matrix" values="0 0 0 0 0 0 0 0 0 0 0 0 0 0 0 0 0 0 0.1 0"/>
<feBlend mode="normal" in2="BackgroundImageFix" result="effect1_dropShadow_798_57"/>
<feBlend mode="normal" in="SourceGraphic" in2="effect1_dropShadow_798_57" result="shape"/>
</filter>
<linearGradient id="paint0_linear_798_57" x1="16" y1="0" x2="16" y2="32" gradientUnits="userSpaceOnUse">
<stop stop-color="#CC2048"/>
<stop offset="1" stop-color="#7C001D"/>
</linearGradient>
<clipPath id="clip0_798_57">
<rect width="24" height="24" fill="white" transform="translate(4 4)"/>
</clipPath>
</defs>
</svg>
